PathFileType	4	(X/Y/Z)	TVC_58_Cal_02_0_static_RCNL2025.trc
DataRate	CameraRate	NumFrames	NumMarkers	Units	OrigDataRate	OrigDataStartFrame	OrigNumFrames
100	100	6	27	mm	100	1	102
Frame#	Time	R_Shoulder			L_Shoulder			C7			J_Notch			R_Elbow			L_Elbow			R_Wrist			L_Wrist			R_Asis			L_Asis			R_Psis			L_Psis			Sacral			Thoracic			Sternum			R_Thigh_Lateral			R_Knee_Lateral			R_Shank_Lateral			R_Ankle_Lateral			R_Heel			R_Toe			L_Thigh_Lateral			L_Knee_Lateral			L_Shank_Lateral			L_Ankle_Lateral			L_Heel			L_Toe		
		X1	Y1	Z1	X2	Y2	Z2	X3	Y3	Z3	X4	Y4	Z4	X5	Y5	Z5	X6	Y6	Z6	X7	Y7	Z7	X8	Y8	Z8	X9	Y9	Z9	X10	Y10	Z10	X11	Y11	Z11	X12	Y12	Z12	X13	Y13	Z13	X14	Y14	Z14	X15	Y15	Z15	X16	Y16	Z16	X17	Y17	Z17	X18	Y18	Z18	X19	Y19	Z19	X20	Y20	Z20	X21	Y21	Z21	X22	Y22	Z22	X23	Y23	Z23	X24	Y24	Z24	X25	Y25	Z25	X26	Y26	Z26	X27	Y27	Z27
1	0.00000000	-282.910889	1354.406006	-28.654985	-270.337952	1363.022339	-383.695770	-338.724457	1426.335327	-214.655792	-189.083878	1332.507812	-204.230560	-301.149200	1043.870239	54.062344	-321.449829	1053.817261	-458.532684	-217.237724	805.749298	87.065262	-262.375053	813.816040	-511.745026	-172.732925	910.382202	-59.363567	-164.842316	907.065186	-367.660828	-393.894745	965.747375	-152.571991	-395.725525	958.789978	-264.384949	-394.810135	962.268677	-208.478470	-375.253815	1119.734741	-212.670105	-84.059418	1082.872803	-212.785934	-226.442581	704.838623	30.681093	-236.131363	470.343719	-49.544617	-277.143280	273.067383	-2.903078	-308.551605	70.271599	-97.802330	-356.145813	61.384716	-156.176376	-178.831070	46.441330	-117.934395	-267.224884	676.122314	-447.659241	-236.367905	469.536957	-345.619873	-276.165619	286.601379	-404.580048	-322.710175	65.011879	-315.524384	-363.325378	57.899021	-262.037170	-184.328003	44.513805	-303.993256
2	0.01000000	-283.037354	1354.410889	-28.635355	-270.400238	1363.004150	-383.655945	-338.725067	1426.292358	-214.657562	-189.181229	1332.533691	-204.244049	-301.248352	1043.836792	54.014233	-321.395874	1053.744995	-458.498230	-217.190575	805.679840	87.072262	-262.426491	813.833954	-511.761963	-173.170441	910.317383	-59.454647	-164.877121	907.061462	-367.592163	-393.931732	965.791809	-152.501053	-395.790771	958.808105	-264.211914	-394.861252	962.299957	-208.356483	-375.332886	1119.708252	-212.599945	-84.132126	1082.828735	-212.728836	-226.532654	704.800842	30.709812	-236.165863	470.358429	-49.519638	-277.194489	273.161530	-2.856153	-308.646271	70.216553	-97.823174	-356.069946	61.373734	-156.241348	-178.842911	46.454674	-117.927795	-267.130890	676.124146	-447.637512	-236.384628	469.528107	-345.604095	-276.071472	286.607574	-404.450745	-322.700562	65.021843	-315.528809	-363.355133	57.811882	-262.060638	-184.339401	44.527748	-303.966125
3	0.02000000	-283.107880	1354.453003	-28.533607	-270.457794	1363.000977	-383.580139	-338.826294	1426.304810	-214.592545	-189.168396	1332.585693	-204.194458	-301.323761	1043.844360	54.055439	-321.422852	1053.769165	-458.478699	-217.113686	805.769318	87.079073	-262.461769	813.791138	-511.745667	-173.353104	910.233398	-59.433109	-164.962158	907.086426	-367.489166	-394.012268	965.792419	-152.460037	-395.896454	958.773987	-264.122925	-394.954361	962.283203	-208.291481	-375.338593	1119.708984	-212.595901	-84.277771	1082.852539	-212.714828	-226.565704	704.774597	30.728024	-236.204849	470.375336	-49.475189	-277.174286	273.084167	-2.773778	-308.353363	70.431725	-97.879837	-356.138489	61.323879	-156.186981	-178.838821	46.450340	-117.931824	-267.082184	676.092896	-447.615387	-236.451523	469.536133	-345.531799	-276.078369	286.605438	-404.387634	-322.760284	65.077248	-315.522247	-363.298615	57.796295	-262.069183	-184.348572	44.503437	-303.938416
4	0.03000000	-283.021271	1354.390991	-28.563944	-270.511230	1362.952026	-383.591553	-338.816040	1426.288696	-214.576691	-189.278961	1332.472778	-204.072403	-301.343323	1043.833984	54.066544	-321.377167	1053.744141	-458.441711	-217.210907	805.688782	87.074982	-262.519890	813.800964	-511.798477	-173.478409	910.182251	-59.440868	-164.959091	907.066833	-367.465149	-394.019897	965.787109	-152.457001	-395.979523	958.757812	-264.080780	-394.999710	962.272461	-208.268890	-375.388397	1119.739624	-212.461914	-84.306053	1082.764282	-212.707870	-226.757034	704.777405	30.927464	-236.135315	470.253052	-49.528133	-277.238342	273.160065	-2.897997	-308.346588	70.454773	-97.847580	-356.158295	61.325195	-156.174164	-178.773407	46.437954	-117.904907	-267.028442	676.078674	-447.474518	-236.447388	469.539154	-345.554657	-276.184448	286.560150	-404.487823	-322.752869	65.046700	-315.601440	-363.344208	57.785381	-262.059448	-184.278030	44.460381	-303.973969
5	0.04000000	-283.058441	1354.342407	-28.531979	-270.514282	1362.971558	-383.544891	-338.796326	1426.321289	-214.480698	-189.317535	1332.473877	-203.984055	-301.413513	1043.788086	54.139156	-321.465973	1053.713745	-458.418549	-217.238403	805.645844	87.035660	-262.521095	813.789001	-511.787186	-173.485321	910.160278	-59.396553	-165.021027	907.041748	-367.433899	-394.074158	965.833557	-152.309998	-396.011078	958.694153	-264.026154	-395.042618	962.263855	-208.168076	-375.483887	1119.683838	-212.360519	-84.387878	1082.723755	-212.563049	-226.785095	704.735535	30.950109	-236.103058	470.231995	-49.545799	-277.288422	273.002380	-2.873713	-308.352753	70.461067	-97.889771	-356.210388	61.351536	-156.218628	-178.832169	46.417160	-117.959549	-267.064697	676.113037	-447.543701	-236.441483	469.518860	-345.510742	-276.204834	286.508301	-404.419159	-322.751862	65.058525	-315.592865	-363.369476	57.817429	-262.041931	-184.342514	44.560707	-303.948486
6	0.05000000	-283.233185	1354.397217	-28.393631	-270.492737	1362.878906	-383.464355	-338.868286	1426.279175	-214.424454	-189.402832	1332.315308	-203.879440	-301.474823	1043.826050	54.155708	-321.482056	1053.702148	-458.411591	-217.289452	805.635742	87.082537	-262.478317	813.815704	-511.768326	-173.474716	910.214417	-59.279118	-165.050507	907.093872	-367.355469	-394.099396	965.812622	-152.304703	-396.107056	958.750732	-263.957275	-395.103226	962.281677	-208.130989	-375.491821	1119.681641	-212.356369	-84.436142	1082.709595	-212.496613	-226.931564	704.784485	30.938499	-236.252670	470.306641	-49.442879	-277.286774	272.913269	-2.820130	-308.393402	70.458107	-97.835022	-356.177216	61.341301	-156.216049	-178.908005	46.497158	-117.963257	-267.020477	676.132385	-447.435883	-236.377213	469.505005	-345.449097	-276.183411	286.487274	-404.340118	-322.763123	65.032333	-315.560883	-363.350647	57.819321	-262.059998	-184.315140	44.468704	-304.028442
